<svg width="30" height="30" viewBox="0 0 30 30" fill="none" xmlns="http://www.w3.org/2000/svg">
<path d="M6.96 8.22C7.29994 7.76675 7.83344 7.5 8.4 7.5H21.6C22.1666 7.5 22.7001 7.76675 23.04 8.22L25.89 12.02C26.1237 12.3316 26.25 12.7105 26.25 13.1V21.95C26.25 22.9441 25.4441 23.75 24.45 23.75H5.55C4.55589 23.75 3.75 22.9441 3.75 21.95V13.1C3.75 12.7105 3.87632 12.3316 4.11 12.02L6.96 8.22Z" stroke="#33363F" stroke-width="2"/>
<path d="M3.75 12.5H9.38197C9.76074 12.5 10.107 12.714 10.2764 13.0528L10.9736 14.4472C11.143 14.786 11.4893 15 11.868 15H18.132C18.5107 15 18.857 14.786 19.0264 14.4472L19.7236 13.0528C19.893 12.714 20.2393 12.5 20.618 12.5H26.25V21.75C26.25 22.8546 25.3546 23.75 24.25 23.75H5.75C4.64543 23.75 3.75 22.8546 3.75 21.75V12.5Z" fill="#33363F"/>
</svg>
