<svg width="241" height="241" viewBox="0 0 241 241" fill="none" xmlns="http://www.w3.org/2000/svg">
<circle cx="173.266" cy="178.086" r="33.4863" stroke="#F2E9E4" stroke-width="8"/>
<path d="M219.31 224.13L200.474 205.294" stroke="#F2E9E4" stroke-width="9" stroke-linecap="round"/>
<path fill-rule="evenodd" clip-rule="evenodd" d="M40.1667 90.0833C40.1667 57.085 40.1667 40.5858 50.4179 30.3346C60.6692 20.0833 77.1684 20.0833 110.167 20.0833H130.833C163.832 20.0833 180.331 20.0833 190.582 30.3346C200.833 40.5858 200.833 57.085 200.833 90.0833V144.849C193.31 138.457 183.564 134.6 172.917 134.6C149.093 134.6 129.78 153.913 129.78 177.737C129.78 198.803 144.88 216.342 164.847 220.121C155.98 220.917 144.908 220.917 130.833 220.917H110.167C77.1684 220.917 60.6692 220.917 50.4179 210.665C40.1667 200.414 40.1667 183.915 40.1667 150.917V90.0833ZM172.917 154.6C160.139 154.6 149.78 164.959 149.78 177.737C149.78 190.516 160.139 200.875 172.917 200.875C185.696 200.875 196.055 190.516 196.055 177.737C196.055 164.959 185.696 154.6 172.917 154.6ZM82.7434 57.57C78.6013 57.57 75.2434 60.9278 75.2434 65.07C75.2434 69.2121 78.6013 72.57 82.7434 72.57L130.943 72.57C135.086 72.57 138.443 69.2121 138.443 65.07C138.443 60.9278 135.086 57.57 130.943 57.57L82.7434 57.57ZM82.7434 105.77C78.6013 105.77 75.2434 109.128 75.2434 113.27C75.2434 117.412 78.6013 120.77 82.7434 120.77L155.043 120.77C159.186 120.77 162.543 117.412 162.543 113.27C162.543 109.128 159.186 105.77 155.043 105.77L82.7434 105.77ZM82.7434 153.97C78.6013 153.97 75.2434 157.328 75.2434 161.47C75.2434 165.612 78.6013 168.97 82.7434 168.97H118.893C123.036 168.97 126.393 165.612 126.393 161.47C126.393 157.328 123.036 153.97 118.893 153.97H82.7434Z" fill="#F2E9E4"/>
</svg>
