<svg width="212" height="241" viewBox="0 0 212 241" fill="none" xmlns="http://www.w3.org/2000/svg">
<circle cx="133.233" cy="179.967" r="34" transform="rotate(10.0343 133.233 179.967)" stroke="#F2E9E4" stroke-width="8"/>
<path d="M171.324 234.437L154.94 212.243" stroke="#F2E9E4" stroke-width="9" stroke-linecap="round"/>
<path fill-rule="evenodd" clip-rule="evenodd" d="M11 119C11 91.6585 11 77.9878 19.4939 69.4939C27.9878 61 41.6585 61 69 61H114C141.341 61 155.012 61 163.506 69.4939C172 77.9878 172 91.6585 172 119V159.788C165.974 148.003 154.691 139.08 140.652 136.596C116.859 132.386 94.1585 148.261 89.9485 172.054C85.9488 194.659 100.078 216.278 121.903 221.991C119.403 222 116.772 222 114 222H69C41.6585 222 27.9878 222 19.4939 213.506C11 205.012 11 191.341 11 164V119ZM148.937 220.439C149.054 220.417 149.17 220.395 149.286 220.372L149.247 220.317C149.144 220.358 149.041 220.399 148.937 220.439ZM166.392 209.935C167.408 208.361 168.24 206.631 168.922 204.711C167.908 206.163 166.81 207.546 165.637 208.855L166.392 209.935ZM74.1666 88.9V92.45H68.9166V120H65.0666C64.0999 118.033 62.8999 116.317 61.4666 114.85C60.1951 113.519 58.8449 112.359 57.416 111.37C56.6217 112.44 55.5719 113.333 54.2666 114.05C52.5666 114.983 50.4166 115.45 47.8166 115.45C45.5499 115.45 43.3833 114.917 41.3166 113.85C39.2499 112.783 37.2999 110.983 35.4666 108.45C33.6666 105.883 31.9999 102.367 30.4666 97.9L34.1166 96.7C35.3166 100.167 36.5666 103.017 37.8666 105.25C39.1999 107.45 40.6833 109.067 42.3166 110.1C43.9499 111.133 45.8166 111.65 47.9166 111.65C49.7499 111.65 51.2166 111.367 52.3166 110.8C53.4499 110.2 54.2666 109.4 54.7666 108.4C55.2666 107.367 55.5166 106.233 55.5166 105C55.5166 103.067 54.9833 101.5 53.9166 100.3C52.8833 99.1 51.5833 98.5 50.0166 98.5C48.9166 98.5 48.0833 98.75 47.5166 99.25C46.9499 99.7167 46.6666 100.433 46.6666 101.4C46.6666 101.633 46.6999 101.95 46.7666 102.35C46.8333 102.75 46.9333 103.117 47.0666 103.45L43.2666 104.2C43.0333 103.5 42.8499 102.867 42.7166 102.3C42.6166 101.7 42.5666 101.133 42.5666 100.6C42.5666 99.3667 42.8999 98.3333 43.5666 97.5C44.2074 96.7371 45.0019 96.1558 45.95 95.7561C45.6913 95.0931 45.2802 94.491 44.7166 93.95C44.0888 93.296 43.2249 92.796 42.125 92.45H28.5166V88.9H74.1666ZM62.0666 110.7C60.9894 109.702 59.9432 108.869 58.9281 108.202C59.1871 107.271 59.3166 106.304 59.3166 105.3C59.3166 103.267 58.9166 101.483 58.1166 99.95C57.3166 98.4167 56.1999 97.2167 54.7666 96.35C53.3753 95.4764 51.7328 95.0268 49.839 95.0012C49.591 94.2607 49.2169 93.6103 48.7166 93.05C48.5337 92.8452 48.3252 92.6452 48.0909 92.45H65.0666V110.3V111.8C65.0999 112.267 65.1166 112.717 65.1166 113.15C65.1499 113.583 65.1833 114.05 65.2166 114.55C64.4833 113.25 63.4333 111.967 62.0666 110.7ZM140.973 88.9V88.9003C141.888 88.9096 142.738 89.1762 143.523 89.7C144.357 90.2 145.04 90.9833 145.573 92.05C145.54 91.8833 145.49 91.5 145.423 90.9C145.39 90.3 145.373 89.7833 145.373 89.35V85.6H148.023L149.173 88.9H154.473V92.45H149.223V120H145.373V96.05C144.807 94.75 144.157 93.8333 143.423 93.3C142.723 92.7333 141.89 92.45 140.923 92.45H140.423H135.973V120H132.123C131.157 118.033 129.957 116.317 128.523 114.85C127.252 113.519 125.902 112.359 124.473 111.37C123.678 112.44 122.629 113.333 121.323 114.05C119.623 114.983 117.473 115.45 114.873 115.45C112.607 115.45 110.44 114.917 108.373 113.85C106.307 112.783 104.357 110.983 102.523 108.45C100.723 105.883 99.0566 102.367 97.5232 97.9L101.173 96.7C102.373 100.167 103.623 103.017 104.923 105.25C106.257 107.45 107.74 109.067 109.373 110.1C111.007 111.133 112.873 111.65 114.973 111.65C116.807 111.65 118.273 111.367 119.373 110.8C120.507 110.2 121.323 109.4 121.823 108.4C122.323 107.4 122.573 106.267 122.573 105C122.573 103.067 122.04 101.5 120.973 100.3C119.94 99.1 118.64 98.5 117.073 98.5C115.973 98.5 115.14 98.75 114.573 99.25C114.007 99.7167 113.723 100.433 113.723 101.4C113.723 101.633 113.757 101.95 113.823 102.35C113.89 102.75 113.99 103.117 114.123 103.45L110.323 104.2C110.09 103.5 109.907 102.867 109.773 102.3C109.673 101.7 109.623 101.133 109.623 100.6C109.623 99.3667 109.957 98.3333 110.623 97.5C111.264 96.7371 112.059 96.1558 113.007 95.7561C112.748 95.0931 112.337 94.491 111.773 93.95C111.145 93.296 110.282 92.796 109.182 92.45H95.5732V88.9H140.423H140.923H140.973ZM129.123 110.7C128.046 109.702 127 108.869 125.985 108.202C126.244 107.271 126.373 106.304 126.373 105.3C126.373 103.267 125.973 101.483 125.173 99.95C124.373 98.4167 123.257 97.2167 121.823 96.35C120.432 95.4764 118.789 95.0268 116.896 95.0012C116.648 94.2607 116.274 93.6103 115.773 93.05C115.59 92.8452 115.382 92.6452 115.148 92.45H132.123V110.3V111.8C132.157 112.267 132.173 112.717 132.173 113.15C132.207 113.583 132.24 114.05 132.273 114.55C131.54 113.25 130.49 111.967 129.123 110.7ZM74.599 166.9V170.45H58.349V172.407C60.7195 172.703 62.8862 173.334 64.849 174.3C66.949 175.3 68.6324 176.6 69.899 178.2C71.1657 179.767 71.799 181.567 71.799 183.6C71.799 184.7 71.5824 185.75 71.149 186.75C70.7157 187.717 69.999 188.517 68.999 189.15C67.999 189.783 66.6657 190.1 64.999 190.1C64.4657 190.1 63.949 190.083 63.449 190.05C62.9824 190.017 62.5157 189.95 62.049 189.85L62.349 186.25C62.549 186.283 62.7824 186.317 63.049 186.35H64.049C65.649 186.35 66.6824 186.05 67.149 185.45C67.649 184.817 67.899 184.067 67.899 183.2C67.899 181.433 67.0324 179.933 65.299 178.7C63.7102 177.516 61.3936 176.682 58.349 176.197V198H54.499C53.5324 196.033 52.1824 194.183 50.449 192.45C48.7157 190.717 46.7324 189.267 44.499 188.1C42.299 186.9 39.9824 186.15 37.549 185.85L35.599 181.05C38.8324 179.183 42.0657 177.517 45.299 176.05C48.2042 174.732 51.2709 173.549 54.499 172.5V170.45H33.249V166.9H74.599ZM50.249 177.95C51.7079 177.34 53.1246 176.825 54.499 176.405V188.55C54.499 189.617 54.5157 190.533 54.549 191.3L54.6574 192.546C53.875 191.176 52.8055 189.894 51.449 188.7C49.8157 187.2 47.999 185.933 45.999 184.9C44.0324 183.867 42.1157 183.167 40.249 182.8C41.6824 182 43.249 181.183 44.949 180.35C46.6824 179.517 48.449 178.717 50.249 177.95ZM149.737 166.9V170.45H144.487V198H140.637C139.703 196.633 138.637 195.317 137.437 194.05C136.237 192.783 134.903 191.617 133.437 190.55C131.97 189.483 130.353 188.567 128.587 187.8C126.82 187.033 124.87 186.467 122.737 186.1L121.537 181.45C124.237 181.25 126.437 180.867 128.137 180.3C129.87 179.7 131.137 178.933 131.937 178C132.77 177.033 133.187 175.933 133.187 174.7C133.187 173.667 132.953 172.733 132.487 171.9C132.359 171.673 132.211 171.447 132.042 171.223C131.627 171.899 131.175 172.524 130.687 173.1C129.753 174.167 128.687 175 127.487 175.6C126.32 176.2 125.003 176.5 123.537 176.5C121.503 176.5 119.887 175.983 118.687 174.95C117.487 173.883 116.887 172.433 116.887 170.6C116.887 169.833 116.987 169.1 117.187 168.4C117.42 167.7 117.687 167.1 117.987 166.6L121.787 167.65C121.553 167.983 121.353 168.4 121.187 168.9C121.02 169.367 120.937 169.867 120.937 170.4C120.937 171.267 121.17 171.917 121.637 172.35C122.137 172.75 122.77 172.95 123.537 172.95C124.203 172.95 124.903 172.817 125.637 172.55C126.37 172.283 127.12 171.75 127.887 170.95C128.687 170.15 129.47 168.967 130.237 167.4L132.987 166.75C134.12 167.783 135.053 168.967 135.787 170.3C136.553 171.6 136.937 173 136.937 174.5C136.937 176.433 136.403 178.083 135.337 179.45C134.303 180.783 132.87 181.85 131.037 182.65C129.814 183.171 128.476 183.576 127.022 183.866C128.814 184.342 130.402 184.936 131.787 185.65C133.953 186.717 135.753 187.917 137.187 189.25C138.653 190.583 139.837 191.883 140.737 193.15L140.637 190.85V188.35V163.6H143.287L144.437 166.9H149.737ZM109.643 175.539C111.928 162.623 124.251 154.005 137.167 156.29C150.084 158.576 158.701 170.899 156.416 183.815C154.131 196.731 141.807 205.349 128.891 203.064C115.975 200.778 107.357 188.455 109.643 175.539Z" fill="#F2E9E4"/>
</svg>
